<?xml version="1.0" standalone="no"?>
<!DOCTYPE svg PUBLIC "-//W3C//DTD SVG 20010904//EN"
 "http://www.w3.org/TR/2001/REC-SVG-20010904/DTD/svg10.dtd">
<svg version="1.0" xmlns="http://www.w3.org/2000/svg"
 width="242.000000pt" height="242.000000pt" viewBox="0 0 242.000000 242.000000"
 preserveAspectRatio="xMidYMid meet">

<g transform="translate(0.000000,242.000000) scale(0.100000,-0.100000)"
fill="#de6161" stroke="none">
<path d="M885 2224 c-176 -101 -331 -190 -345 -197 -14 -8 -43 -24 -65 -37
-22 -12 -60 -34 -85 -48 -25 -13 -61 -34 -80 -46 -74 -45 -96 -57 -112 -62 -9
-3 -18 -14 -21 -23 -2 -10 -2 -281 1 -604 l5 -587 379 -220 c209 -122 386
-220 393 -218 7 2 243 136 525 298 l512 295 -6 185 c-3 102 -6 300 -6 442 l0
256 -385 222 -386 222 -177 -102 c-153 -89 -320 -185 -532 -305 l-55 -31 -3
-380 c-1 -210 1 -412 5 -450 l8 -68 245 -142 c217 -126 247 -141 265 -130 11
7 183 106 383 221 l362 208 0 292 0 293 -247 144 -248 144 -252 -150 -252
-151 -1 -190 c0 -104 3 -234 7 -287 l6 -98 76 -44 c42 -24 92 -53 111 -65 l36
-20 244 140 c135 77 249 144 254 149 4 4 5 69 1 143 l-7 135 -110 61 c-60 34
-115 61 -122 59 -7 -2 -60 -30 -119 -63 l-107 -60 0 -92 c0 -51 3 -93 6 -93 3
0 42 22 87 48 133 79 119 75 166 42 70 -51 63 -62 -116 -165 -86 -49 -164 -91
-173 -93 -9 -2 -27 5 -39 16 -23 18 -23 18 -16 203 l7 185 156 92 155 92 161
-94 161 -94 3 -179 c2 -133 -1 -183 -10 -194 -13 -16 -573 -339 -586 -339 -19
1 -317 187 -316 198 1 7 2 159 3 340 l1 327 288 171 287 172 40 -23 c22 -12
156 -88 298 -170 l257 -148 0 -341 0 -341 -419 -242 c-230 -133 -424 -244
-430 -245 -6 -2 -141 71 -300 162 l-290 165 -1 497 0 497 58 32 c31 18 221
129 420 246 200 117 369 213 375 213 7 -1 201 -110 432 -245 l420 -243 2 -490
c2 -452 1 -490 -15 -504 -9 -8 -237 -142 -507 -298 -269 -156 -494 -286 -498
-290 -7 -6 155 -110 171 -110 4 0 239 135 522 299 l515 298 0 146 c0 81 -1
351 -3 600 l-2 453 -520 297 c-286 163 -521 297 -523 296 -1 0 -146 -84 -322
-185z"/>
</g>
</svg>
